<?xml version="1.0" encoding="UTF-8" standalone="no"?>
<svg
   xmlns:dc="http://purl.org/dc/elements/1.1/"
   xmlns:cc="http://creativecommons.org/ns#"
   xmlns:rdf="http://www.w3.org/1999/02/22-rdf-syntax-ns#"
   xmlns:svg="http://www.w3.org/2000/svg"
   xmlns="http://www.w3.org/2000/svg"
   version="1.1"
   id="svg6570"
   viewBox="0 0 353.04378 214.49031"
   height="60.533932mm"
   width="99.636803mm">
  <defs
     style="stroke-linecap:butt;stroke-linejoin:round;stroke-miterlimit:100000"
     id="defs6572">
    <marker
       style="overflow:visible"
       id="marker8470"
       refX="0"
       refY="0"
       orient="auto">
      <path
         transform="matrix(-0.4,0,0,-0.4,-4,0)"
         style="fill:#000000;fill-opacity:1;fill-rule:evenodd;stroke:#000000;stroke-width:1pt;stroke-opacity:1"
         d="M 0,0 5,-5 -12.5,0 5,5 0,0 Z"
         id="path8472" />
    </marker>
    <marker
       orient="auto"
       refY="0"
       refX="0"
       id="marker8170"
       style="overflow:visible">
      <path
         id="path8172"
         d="M 0,0 5,-5 -12.5,0 5,5 0,0 Z"
         style="fill:#000000;fill-opacity:1;fill-rule:evenodd;stroke:#000000;stroke-width:1pt;stroke-opacity:1"
         transform="matrix(-0.4,0,0,-0.4,-4,0)" />
    </marker>
    <marker
       style="overflow:visible"
       id="marker8014"
       refX="0"
       refY="0"
       orient="auto">
      <path
         transform="matrix(-0.4,0,0,-0.4,-4,0)"
         style="fill:#000000;fill-opacity:1;fill-rule:evenodd;stroke:#000000;stroke-width:1pt;stroke-opacity:1"
         d="M 0,0 5,-5 -12.5,0 5,5 0,0 Z"
         id="path8016" />
    </marker>
    <marker
       orient="auto"
       refY="0"
       refX="0"
       id="marker6160"
       style="overflow:visible">
      <path
         id="path6162"
         d="M 0,0 5,-5 -12.5,0 5,5 0,0 Z"
         style="fill:#000000;fill-opacity:1;fill-rule:evenodd;stroke:#000000;stroke-width:1pt;stroke-opacity:1"
         transform="matrix(-0.4,0,0,-0.4,-4,0)" />
    </marker>
    <marker
       orient="auto"
       refY="0"
       refX="0"
       id="marker6160-8"
       style="overflow:visible">
      <path
         id="path6162-1"
         d="M 0,0 5,-5 -12.5,0 5,5 0,0 Z"
         style="fill:#000000;fill-opacity:1;fill-rule:evenodd;stroke:#000000;stroke-width:1pt;stroke-opacity:1"
         transform="matrix(-0.4,0,0,-0.4,-4,0)" />
    </marker>
    <marker
       style="overflow:visible"
       id="marker5715"
       refX="0"
       refY="0"
       orient="auto">
      <path
         transform="matrix(-0.4,0,0,-0.4,-4,0)"
         style="fill:#000000;fill-opacity:1;fill-rule:evenodd;stroke:#000000;stroke-width:1pt;stroke-opacity:1"
         d="M 0,0 5,-5 -12.5,0 5,5 0,0 Z"
         id="path5717" />
    </marker>
    <marker
       orient="auto"
       refY="0"
       refX="0"
       id="marker5655-9"
       style="overflow:visible">
      <path
         id="path5657-8"
         d="M 0,0 5,-5 -12.5,0 5,5 0,0 Z"
         style="fill:#000000;fill-opacity:1;fill-rule:evenodd;stroke:#000000;stroke-width:1pt;stroke-opacity:1"
         transform="matrix(-0.4,0,0,-0.4,-4,0)" />
    </marker>
    <marker
       style="overflow:visible"
       id="marker5601"
       refX="0"
       refY="0"
       orient="auto">
      <path
         transform="matrix(-0.4,0,0,-0.4,-4,0)"
         style="fill:#000000;fill-opacity:1;fill-rule:evenodd;stroke:#000000;stroke-width:1pt;stroke-opacity:1"
         d="M 0,0 5,-5 -12.5,0 5,5 0,0 Z"
         id="path5603" />
    </marker>
    <marker
       orient="auto"
       refY="0"
       refX="0"
       id="marker5555"
       style="overflow:visible">
      <path
         id="path5557"
         d="M 0,0 5,-5 -12.5,0 5,5 0,0 Z"
         style="fill:#000000;fill-opacity:1;fill-rule:evenodd;stroke:#000000;stroke-width:1pt;stroke-opacity:1"
         transform="matrix(-0.4,0,0,-0.4,-4,0)" />
    </marker>
    <marker
       style="overflow:visible"
       id="marker5019"
       refX="0"
       refY="0"
       orient="auto">
      <path
         transform="matrix(-0.4,0,0,-0.4,-4,0)"
         style="fill:#000000;fill-opacity:1;fill-rule:evenodd;stroke:#000000;stroke-width:1pt;stroke-opacity:1"
         d="M 0,0 5,-5 -12.5,0 5,5 0,0 Z"
         id="path5021" />
    </marker>
    <marker
       orient="auto"
       refY="0"
       refX="0"
       id="marker4677"
       style="overflow:visible">
      <path
         id="path4679"
         d="M 0,0 5,-5 -12.5,0 5,5 0,0 Z"
         style="fill:#000000;fill-opacity:1;fill-rule:evenodd;stroke:#000000;stroke-width:1pt;stroke-opacity:1"
         transform="matrix(-0.4,0,0,-0.4,-4,0)" />
    </marker>
    <marker
       style="overflow:visible"
       id="Arrow1Mend"
       refX="0"
       refY="0"
       orient="auto">
      <path
         transform="matrix(-0.4,0,0,-0.4,-4,0)"
         style="fill:#000000;fill-opacity:1;fill-rule:evenodd;stroke:#000000;stroke-width:1pt;stroke-opacity:1"
         d="M 0,0 5,-5 -12.5,0 5,5 0,0 Z"
         id="path4408" />
    </marker>
    <style
       type="text/css"
       id="style8851">
*{stroke-linecap:butt;stroke-linejoin:round;stroke-miterlimit:100000;}
  </style>
  </defs>
  <metadata
     id="metadata6575">
    <rdf:RDF>
      <cc:Work
         rdf:about="">
        <dc:format>image/svg+xml</dc:format>
        <dc:type
           rdf:resource="http://purl.org/dc/dcmitype/StillImage" />
        <dc:title></dc:title>
      </cc:Work>
    </rdf:RDF>
  </metadata>
  <g
     transform="translate(-123.57299,-121.93874)"
     id="layer1">
    <text
       xml:space="preserve"
       style="font-style:normal;font-weight:normal;font-size:40px;line-height:125%;font-family:sans-serif;letter-spacing:0px;word-spacing:0px;fill:#000000;fill-opacity:1;stroke:none;stroke-width:1px;stroke-linecap:butt;stroke-linejoin:miter;stroke-opacity:1"
       x="441.57758"
       y="154.07796"
       id="text4300"><tspan
         id="tspan4302"
         x="441.57758"
         y="154.07796" /></text>
    <rect
       style="opacity:0.98999999;fill:#999999;fill-opacity:1;stroke:none;stroke-width:1;stroke-linecap:butt;stroke-linejoin:round;stroke-miterlimit:100;stroke-dasharray:none"
       id="rect6123"
       width="72.142853"
       height="52.857143"
       x="264.95718"
       y="204.53951"
       ry="12.768866" />
    <g
       style="stroke-width:1.10021603;stroke-linecap:butt;stroke-linejoin:round;stroke-miterlimit:4;stroke-dasharray:none"
       transform="matrix(1.0020624,0,0,0.82442144,6.0980466,51.858048)"
       id="g8450">
      <path
         style="fill:none;fill-rule:evenodd;stroke:#000000;stroke-width:1.10021603;stroke-linecap:butt;stroke-linejoin:miter;stroke-miterlimit:4;stroke-dasharray:none;stroke-opacity:1;marker-end:url(#marker8014)"
         d="m 200,167.3622 55,35"
         id="path7992" />
      <path
         id="path8168"
         d="m 200,264.96581 55,-35"
         style="fill:none;fill-rule:evenodd;stroke:#000000;stroke-width:1.10021603;stroke-linecap:butt;stroke-linejoin:miter;stroke-miterlimit:4;stroke-dasharray:none;stroke-opacity:1;marker-end:url(#marker8170)" />
    </g>
    <path
       id="path8462"
       d="m 341.56862,233.53112 50,0"
       style="fill:none;fill-rule:evenodd;stroke:#000000;stroke-width:1px;stroke-linecap:butt;stroke-linejoin:miter;stroke-miterlimit:100000;stroke-opacity:1;marker-end:url(#marker8470)" />
    <circle
       r="38.57143"
       cy="234.32236"
       cx="434.50204"
       id="circle8558"
       style="opacity:1;fill:#006680;fill-opacity:1;stroke:none;stroke-width:1;stroke-linecap:butt;stroke-linejoin:round;stroke-miterlimit:100;stroke-dasharray:none" />
    <text
       id="text8560"
       y="245.52202"
       x="423.95242"
       style="font-style:normal;font-weight:normal;font-size:32.31127167px;line-height:125%;font-family:sans-serif;letter-spacing:0px;word-spacing:0px;fill:#f9f9f9;fill-opacity:1;stroke:none;stroke-width:1px;stroke-linecap:butt;stroke-linejoin:miter;stroke-miterlimit:100000;stroke-opacity:1"
       xml:space="preserve"><tspan
         style="font-style:normal;font-variant:normal;font-weight:normal;font-stretch:normal;font-family:jsMath-cmss10;-inkscape-font-specification:jsMath-cmss10;fill:#f9f9f9;stroke-linecap:butt;stroke-linejoin:round;stroke-miterlimit:100000"
         y="245.52202"
         x="423.95242"
         id="tspan8562">C</tspan></text>
    <g
       style="stroke-linecap:butt;stroke-linejoin:round;stroke-miterlimit:100000"
       transform="translate(16.198988,17.968515)"
       id="g9333">
      <g
         id="patch_8"
         style="fill:#006680;fill-opacity:1;stroke-linecap:butt;stroke-linejoin:round;stroke-miterlimit:100000"
         transform="matrix(1.7196008,0,0,1.7196008,-476.77331,-819.49066)">
        <path
           id="path8877"
           style="fill:#006680;fill-opacity:1;stroke-linecap:butt;stroke-linejoin:round;stroke-miterlimit:100000"
           d="m 365.9782,539.08104 -24.21829,17.59562 9.25057,28.47031 29.93545,0 9.25057,-28.47031 z"
           clip-path="url(#pa761a1f003)" />
      </g>
      <text
         xml:space="preserve"
         style="font-style:normal;font-weight:normal;font-size:32.31127167px;line-height:125%;font-family:sans-serif;letter-spacing:0px;word-spacing:0px;fill:#f9f9f9;fill-opacity:1;stroke:none;stroke-width:1px;stroke-linecap:butt;stroke-linejoin:miter;stroke-miterlimit:100000;stroke-opacity:1"
         x="142.98282"
         y="160.91841"
         id="text9293"><tspan
           id="tspan9295"
           x="142.98282"
           y="160.91841"
           style="font-style:normal;font-variant:normal;font-weight:normal;font-stretch:normal;font-family:jsMath-cmss10;-inkscape-font-specification:jsMath-cmss10;fill:#f9f9f9;stroke-linecap:butt;stroke-linejoin:round;stroke-miterlimit:100000">L</tspan></text>
    </g>
    <g
       style="stroke-linecap:butt;stroke-linejoin:round;stroke-miterlimit:100000"
       transform="translate(16.016496,15.269123)"
       id="g9327">
      <g
         transform="matrix(-1.7196008,0,0,-1.7196008,782.08201,1244.6208)"
         style="fill:#006680;fill-opacity:1;stroke-linecap:butt;stroke-linejoin:round;stroke-miterlimit:100000"
         id="g9299">
        <path
           clip-path="url(#pa761a1f003)"
           d="m 365.9782,539.08104 -24.21829,17.59562 9.25057,28.47031 29.93545,0 9.25057,-28.47031 z"
           style="fill:#006680;fill-opacity:1;stroke-linecap:butt;stroke-linejoin:round;stroke-miterlimit:100000"
           id="path9301" />
      </g>
      <text
         id="text9303"
         y="281.80646"
         x="141.24278"
         style="font-style:normal;font-weight:normal;font-size:32.31127167px;line-height:125%;font-family:sans-serif;letter-spacing:0px;word-spacing:0px;fill:#f9f9f9;fill-opacity:1;stroke:none;stroke-width:1px;stroke-linecap:butt;stroke-linejoin:miter;stroke-miterlimit:100000;stroke-opacity:1"
         xml:space="preserve"><tspan
           style="font-style:normal;font-variant:normal;font-weight:normal;font-stretch:normal;font-family:jsMath-cmss10;-inkscape-font-specification:jsMath-cmss10;fill:#f9f9f9;stroke-linecap:butt;stroke-linejoin:round;stroke-miterlimit:100000"
           y="281.80646"
           x="141.24278"
           id="tspan9305">R</tspan></text>
    </g>
    <path
       id="path9579"
       style="font-style:normal;font-weight:normal;line-height:125%;font-family:sans-serif;text-align:center;letter-spacing:0px;word-spacing:0px;baseline-shift:baseline;text-anchor:middle;opacity:0.98009997;fill:#f2f2f2;fill-opacity:1;stroke:none;stroke-width:1px;stroke-linecap:butt;stroke-linejoin:miter;stroke-miterlimit:100000;stroke-opacity:1"
       d="m 286.21298,242.8809 0,5.53017 -1.50525,0 0,-5.48108 q 0,-1.30074 -0.50721,-1.94701 -0.5072,-0.64628 -1.52161,-0.64628 -1.21893,0 -1.92248,0.77717 -0.70353,0.77717 -0.70353,2.1188 l 0,5.1784 -1.51344,0 0,-12.7292 1.51344,0 0,4.99024 q 0.53993,-0.82625 1.26801,-1.23529 0.73626,-0.40904 1.69341,-0.40904 1.57888,0 2.38877,0.98169 0.80989,0.97351 0.80989,2.87143 z" />
    <path
       id="path9581"
       style="font-style:normal;font-weight:normal;line-height:125%;font-family:sans-serif;text-align:center;letter-spacing:0px;word-spacing:0px;baseline-shift:baseline;text-anchor:middle;opacity:0.98009997;fill:#f2f2f2;fill-opacity:1;stroke:none;stroke-width:1px;stroke-linecap:butt;stroke-linejoin:miter;stroke-miterlimit:100000;stroke-opacity:1"
       d="m 300.69285,237.90702 0,4.55667 4.55666,0 0,1.39072 -4.55666,0 0,4.55666 -1.37435,0 0,-4.55666 -4.55667,0 0,-1.39072 4.55667,0 0,-4.55667 1.37435,0 z" />
    <path
       id="path9583"
       style="font-style:normal;font-weight:normal;line-height:125%;font-family:sans-serif;text-align:center;letter-spacing:0px;word-spacing:0px;baseline-shift:baseline;text-anchor:middle;opacity:0.98009997;fill:#f2f2f2;fill-opacity:1;stroke:none;stroke-width:1px;stroke-linecap:butt;stroke-linejoin:miter;stroke-miterlimit:100000;stroke-opacity:1"
       d="m 319.79484,242.68457 q 0.53174,0.17997 1.03077,0.76898 0.5072,0.58902 1.0144,1.61979 l 1.67706,3.33773 -1.77522,0 -1.56252,-3.13322 q -0.60537,-1.2271 -1.17802,-1.62796 -0.56448,-0.40086 -1.54616,-0.40086 l -1.79975,0 0,5.16204 -1.65252,0 0,-12.21382 3.73042,0 q 2.09426,0 3.12503,0.87534 1.03077,0.87534 1.03077,2.64237 0,1.15349 -0.53993,1.91429 -0.53175,0.76081 -1.55433,1.05532 z m -4.13944,-5.12932 0,4.33579 2.0779,0 q 1.19439,0 1.79975,-0.54811 0.61355,-0.55629 0.61355,-1.62797 0,-1.07167 -0.61355,-1.6116 -0.60536,-0.54811 -1.79975,-0.54811 l -2.0779,0 z" />
    <path
       id="path9400"
       d="m 275.53884,230.32151 0,2.09426 50.97953,0 0,-2.09426 -50.97953,0 z"
       style="color:#000000;font-style:normal;font-variant:normal;font-weight:normal;font-stretch:normal;font-size:medium;line-height:normal;font-family:sans-serif;text-indent:0;text-align:start;text-decoration:none;text-decoration-line:none;text-decoration-style:solid;text-decoration-color:#000000;letter-spacing:normal;word-spacing:normal;text-transform:none;direction:ltr;block-progression:tb;writing-mode:lr-tb;baseline-shift:baseline;text-anchor:start;white-space:normal;clip-rule:nonzero;display:inline;overflow:visible;visibility:visible;opacity:1;isolation:auto;mix-blend-mode:normal;color-interpolation:sRGB;color-interpolation-filters:linearRGB;solid-color:#000000;solid-opacity:1;fill:#f2f2f2;fill-opacity:1;fill-rule:evenodd;stroke:none;stroke-width:1.5;stroke-linecap:butt;stroke-linejoin:miter;stroke-miterlimit:100;stroke-dasharray:none;stroke-dashoffset:0;stroke-opacity:1;color-rendering:auto;image-rendering:auto;shape-rendering:auto;text-rendering:auto;enable-background:accumulate" />
    <g
       style="stroke-linecap:butt;stroke-linejoin:round;stroke-miterlimit:100000"
       transform="translate(-1.0225359,0)"
       id="g10638">
      <path
         d="m 299.18021,214.84055 1.65252,0 0,10.82309 5.94737,0 0,1.39072 -7.59989,0 0,-12.21381 z"
         style="font-style:normal;font-weight:normal;line-height:125%;font-family:sans-serif;text-align:center;letter-spacing:0px;word-spacing:0px;baseline-shift:baseline;text-anchor:middle;fill:#f2f2f2;fill-opacity:1;stroke:none;stroke-width:1px;stroke-linecap:butt;stroke-linejoin:round;stroke-miterlimit:100000;stroke-opacity:1"
         id="path9574" />
      <path
         d="m 316.20922,221.32786 q 0.53175,0.17997 1.03077,0.76899 0.5072,0.58901 1.01441,1.61978 l 1.67704,3.33773 -1.77521,0 -1.56251,-3.13321 q -0.60539,-1.22711 -1.17803,-1.62797 -0.56447,-0.40085 -1.54615,-0.40085 l -1.79977,0 0,5.16203 -1.6525,0 0,-12.21381 3.73041,0 q 2.09427,0 3.12504,0.87533 1.03077,0.87534 1.03077,2.64238 0,1.15348 -0.53993,1.91428 -0.53175,0.76081 -1.55434,1.05532 z m -4.13945,-5.12931 0,4.33578 2.07791,0 q 1.19438,0 1.79976,-0.54811 0.61355,-0.55629 0.61355,-1.62796 0,-1.07168 -0.61355,-1.61161 -0.60538,-0.5481 -1.79976,-0.5481 l -2.07791,0 z"
         style="font-style:normal;font-weight:normal;line-height:125%;font-family:sans-serif;text-align:center;letter-spacing:0px;word-spacing:0px;baseline-shift:baseline;text-anchor:middle;fill:#f2f2f2;fill-opacity:1;stroke:none;stroke-width:1px;stroke-linecap:butt;stroke-linejoin:round;stroke-miterlimit:100000;stroke-opacity:1"
         id="path9576" />
      <text
         xml:space="preserve"
         style="font-style:normal;font-weight:normal;font-size:17.82475662px;line-height:125%;font-family:sans-serif;letter-spacing:0px;word-spacing:0px;fill:#ffffff;fill-opacity:1;stroke:none;stroke-width:1px;stroke-linecap:butt;stroke-linejoin:miter;stroke-miterlimit:100000;stroke-opacity:1"
         x="283.9213"
         y="226.9097"
         id="text10634"><tspan
           id="tspan10636"
           style="font-style:normal;font-variant:normal;font-weight:normal;font-stretch:normal;font-family:jsMath-cmss10;-inkscape-font-specification:jsMath-cmss10;fill:#ffffff;stroke-linecap:butt;stroke-linejoin:round;stroke-miterlimit:100000"
           x="283.9213"
           y="226.9097">V</tspan></text>
    </g>
  </g>
</svg>
