<?xml version="1.0" encoding="UTF-8" standalone="no"?>
<svg
   xmlns:dc="http://purl.org/dc/elements/1.1/"
   xmlns:cc="http://creativecommons.org/ns#"
   xmlns:rdf="http://www.w3.org/1999/02/22-rdf-syntax-ns#"
   xmlns:svg="http://www.w3.org/2000/svg"
   xmlns="http://www.w3.org/2000/svg"
   version="1.1"
   id="svg6570"
   viewBox="0 0 366.41261 214.66092"
   height="60.582081mm"
   width="103.40978mm">
  <defs
     style="stroke-linecap:butt;stroke-linejoin:round;stroke-miterlimit:100000"
     id="defs6572">
    <marker
       orient="auto"
       refY="0"
       refX="0"
       id="marker11637"
       style="overflow:visible;stroke-linecap:butt;stroke-linejoin:round;stroke-miterlimit:100000">
      <path
         id="path11639"
         d="M 0,0 5,-5 -12.5,0 5,5 0,0 Z"
         style="fill:#000000;fill-opacity:1;fill-rule:evenodd;stroke:#000000;stroke-width:1pt;stroke-linecap:butt;stroke-linejoin:round;stroke-miterlimit:100000;stroke-opacity:1"
         transform="matrix(-0.4,0,0,-0.4,-4,0)" />
    </marker>
    <marker
       style="overflow:visible;stroke-linecap:butt;stroke-linejoin:round;stroke-miterlimit:100000"
       id="marker11541"
       refX="0"
       refY="0"
       orient="auto">
      <path
         transform="matrix(-0.4,0,0,-0.4,-4,0)"
         style="fill:#000000;fill-opacity:1;fill-rule:evenodd;stroke:#000000;stroke-width:1pt;stroke-linecap:butt;stroke-linejoin:round;stroke-miterlimit:100000;stroke-opacity:1"
         d="M 0,0 5,-5 -12.5,0 5,5 0,0 Z"
         id="path11543" />
    </marker>
    <marker
       orient="auto"
       refY="0"
       refX="0"
       id="marker11453"
       style="overflow:visible;stroke-linecap:butt;stroke-linejoin:round;stroke-miterlimit:100000">
      <path
         id="path11455"
         d="M 0,0 5,-5 -12.5,0 5,5 0,0 Z"
         style="fill:#000000;fill-opacity:1;fill-rule:evenodd;stroke:#000000;stroke-width:1pt;stroke-linecap:butt;stroke-linejoin:round;stroke-miterlimit:100000;stroke-opacity:1"
         transform="matrix(-0.4,0,0,-0.4,-4,0)" />
    </marker>
    <marker
       style="overflow:visible"
       id="marker8470"
       refX="0"
       refY="0"
       orient="auto">
      <path
         transform="matrix(-0.4,0,0,-0.4,-4,0)"
         style="fill:#000000;fill-opacity:1;fill-rule:evenodd;stroke:#000000;stroke-width:1pt;stroke-opacity:1"
         d="M 0,0 5,-5 -12.5,0 5,5 0,0 Z"
         id="path8472" />
    </marker>
    <marker
       orient="auto"
       refY="0"
       refX="0"
       id="marker6160"
       style="overflow:visible">
      <path
         id="path6162"
         d="M 0,0 5,-5 -12.5,0 5,5 0,0 Z"
         style="fill:#000000;fill-opacity:1;fill-rule:evenodd;stroke:#000000;stroke-width:1pt;stroke-opacity:1"
         transform="matrix(-0.4,0,0,-0.4,-4,0)" />
    </marker>
    <marker
       orient="auto"
       refY="0"
       refX="0"
       id="marker6160-8"
       style="overflow:visible">
      <path
         id="path6162-1"
         d="M 0,0 5,-5 -12.5,0 5,5 0,0 Z"
         style="fill:#000000;fill-opacity:1;fill-rule:evenodd;stroke:#000000;stroke-width:1pt;stroke-opacity:1"
         transform="matrix(-0.4,0,0,-0.4,-4,0)" />
    </marker>
    <marker
       style="overflow:visible"
       id="marker5715"
       refX="0"
       refY="0"
       orient="auto">
      <path
         transform="matrix(-0.4,0,0,-0.4,-4,0)"
         style="fill:#000000;fill-opacity:1;fill-rule:evenodd;stroke:#000000;stroke-width:1pt;stroke-opacity:1"
         d="M 0,0 5,-5 -12.5,0 5,5 0,0 Z"
         id="path5717" />
    </marker>
    <marker
       orient="auto"
       refY="0"
       refX="0"
       id="marker5655-9"
       style="overflow:visible">
      <path
         id="path5657-8"
         d="M 0,0 5,-5 -12.5,0 5,5 0,0 Z"
         style="fill:#000000;fill-opacity:1;fill-rule:evenodd;stroke:#000000;stroke-width:1pt;stroke-opacity:1"
         transform="matrix(-0.4,0,0,-0.4,-4,0)" />
    </marker>
    <marker
       style="overflow:visible"
       id="marker5601"
       refX="0"
       refY="0"
       orient="auto">
      <path
         transform="matrix(-0.4,0,0,-0.4,-4,0)"
         style="fill:#000000;fill-opacity:1;fill-rule:evenodd;stroke:#000000;stroke-width:1pt;stroke-opacity:1"
         d="M 0,0 5,-5 -12.5,0 5,5 0,0 Z"
         id="path5603" />
    </marker>
    <marker
       orient="auto"
       refY="0"
       refX="0"
       id="marker5555"
       style="overflow:visible">
      <path
         id="path5557"
         d="M 0,0 5,-5 -12.5,0 5,5 0,0 Z"
         style="fill:#000000;fill-opacity:1;fill-rule:evenodd;stroke:#000000;stroke-width:1pt;stroke-opacity:1"
         transform="matrix(-0.4,0,0,-0.4,-4,0)" />
    </marker>
    <marker
       style="overflow:visible"
       id="marker5019"
       refX="0"
       refY="0"
       orient="auto">
      <path
         transform="matrix(-0.4,0,0,-0.4,-4,0)"
         style="fill:#000000;fill-opacity:1;fill-rule:evenodd;stroke:#000000;stroke-width:1pt;stroke-opacity:1"
         d="M 0,0 5,-5 -12.5,0 5,5 0,0 Z"
         id="path5021" />
    </marker>
    <marker
       orient="auto"
       refY="0"
       refX="0"
       id="marker4677"
       style="overflow:visible">
      <path
         id="path4679"
         d="M 0,0 5,-5 -12.5,0 5,5 0,0 Z"
         style="fill:#000000;fill-opacity:1;fill-rule:evenodd;stroke:#000000;stroke-width:1pt;stroke-opacity:1"
         transform="matrix(-0.4,0,0,-0.4,-4,0)" />
    </marker>
    <marker
       style="overflow:visible"
       id="Arrow1Mend"
       refX="0"
       refY="0"
       orient="auto">
      <path
         transform="matrix(-0.4,0,0,-0.4,-4,0)"
         style="fill:#000000;fill-opacity:1;fill-rule:evenodd;stroke:#000000;stroke-width:1pt;stroke-opacity:1"
         d="M 0,0 5,-5 -12.5,0 5,5 0,0 Z"
         id="path4408" />
    </marker>
    <style
       type="text/css"
       id="style8851">
*{stroke-linecap:butt;stroke-linejoin:round;stroke-miterlimit:100000;}
  </style>
  </defs>
  <metadata
     id="metadata6575">
    <rdf:RDF>
      <cc:Work
         rdf:about="">
        <dc:format>image/svg+xml</dc:format>
        <dc:type
           rdf:resource="http://purl.org/dc/dcmitype/StillImage" />
        <dc:title></dc:title>
      </cc:Work>
    </rdf:RDF>
  </metadata>
  <g
     transform="translate(-110.20417,-96.24461)"
     id="layer1">
    <text
       xml:space="preserve"
       style="font-style:normal;font-weight:normal;font-size:40px;line-height:125%;font-family:sans-serif;letter-spacing:0px;word-spacing:0px;fill:#000000;fill-opacity:1;stroke:none;stroke-width:1px;stroke-linecap:butt;stroke-linejoin:miter;stroke-opacity:1"
       x="441.57758"
       y="154.07796"
       id="text4300"><tspan
         id="tspan4302"
         x="441.57758"
         y="154.07796" /></text>
    <text
       xml:space="preserve"
       style="font-style:normal;font-weight:normal;font-size:13.24533272px;line-height:125%;font-family:sans-serif;letter-spacing:0px;word-spacing:0px;fill:#000000;fill-opacity:1;stroke:none;stroke-width:1px;stroke-linecap:butt;stroke-linejoin:miter;stroke-miterlimit:100000;stroke-opacity:1"
       x="246.6062"
       y="244.34647"
       id="text11352"><tspan
         id="tspan11354"
         style="font-style:normal;font-variant:normal;font-weight:normal;font-stretch:normal;font-family:jsMath-cmss10;-inkscape-font-specification:jsMath-cmss10;stroke-linecap:butt;stroke-linejoin:round;stroke-miterlimit:100000"
         x="246.6062"
         y="244.34647" /></text>
    <text
       id="text11356"
       y="237.3622"
       x="255"
       style="font-style:normal;font-variant:normal;font-weight:normal;font-stretch:normal;font-size:12.5px;line-height:125%;font-family:jsMath-cmss10;-inkscape-font-specification:jsMath-cmss10;letter-spacing:0px;word-spacing:0px;fill:#000000;fill-opacity:1;stroke:none;stroke-width:1px;stroke-linecap:butt;stroke-linejoin:miter;stroke-miterlimit:100000;stroke-opacity:1"
       xml:space="preserve"><tspan
         y="237.3622"
         x="255"
         style="font-style:normal;font-variant:normal;font-weight:normal;font-stretch:normal;font-family:jsMath-cmss10;-inkscape-font-specification:jsMath-cmss10;stroke-linecap:butt;stroke-linejoin:round;stroke-miterlimit:100000"
         id="tspan11358" /></text>
    <rect
       style="opacity:0.98999999;fill:#999999;fill-opacity:1;stroke:none;stroke-width:1;stroke-linecap:butt;stroke-linejoin:round;stroke-miterlimit:100;stroke-dasharray:none"
       id="rect6123"
       width="104.78714"
       height="52.857143"
       x="232.3129"
       y="204.53951"
       ry="12.768866" />
    <path
       id="path8462"
       d="m 341.56862,233.53112 50,0"
       style="fill:none;fill-rule:evenodd;stroke:#000000;stroke-width:1px;stroke-linecap:butt;stroke-linejoin:miter;stroke-miterlimit:100000;stroke-opacity:1;marker-end:url(#marker8470)" />
    <circle
       r="38.57143"
       cy="234.32236"
       cx="434.50204"
       id="circle8558"
       style="opacity:1;fill:#006680;fill-opacity:1;stroke:none;stroke-width:1;stroke-linecap:butt;stroke-linejoin:round;stroke-miterlimit:100;stroke-dasharray:none" />
    <text
       id="text8560"
       y="245.52202"
       x="423.95242"
       style="font-style:normal;font-weight:normal;font-size:32.31127167px;line-height:125%;font-family:sans-serif;letter-spacing:0px;word-spacing:0px;fill:#f9f9f9;fill-opacity:1;stroke:none;stroke-width:1px;stroke-linecap:butt;stroke-linejoin:miter;stroke-miterlimit:100000;stroke-opacity:1"
       xml:space="preserve"><tspan
         style="font-style:normal;font-variant:normal;font-weight:normal;font-stretch:normal;font-family:jsMath-cmss10;-inkscape-font-specification:jsMath-cmss10;fill:#f9f9f9;stroke-linecap:butt;stroke-linejoin:round;stroke-miterlimit:100000"
         y="245.52202"
         x="423.95242"
         id="tspan8562">C</tspan></text>
    <g
       id="text11290"
       style="font-style:normal;font-weight:normal;font-size:13.24533272px;line-height:125%;font-family:sans-serif;letter-spacing:0px;word-spacing:0px;fill:#ffffff;fill-opacity:1;stroke:none;stroke-width:1px;stroke-linecap:butt;stroke-linejoin:miter;stroke-miterlimit:100000;stroke-opacity:1">
      <path
         id="path11401"
         style="font-style:normal;font-variant:normal;font-weight:normal;font-stretch:normal;font-size:12.5px;font-family:jsMath-cmss10;-inkscape-font-specification:jsMath-cmss10;fill:#ffffff;stroke-linecap:butt;stroke-linejoin:round;stroke-miterlimit:100000"
         d="m 263.04295,222.10065 1.6125,-4.325 0.5625,0 0.5625,0 1.6125,4.325 q 0.45,1.175 1.0375,2.75 0.5875,1.575 0.6,1.5875 0,0.0125 -0.575,0.0125 l -0.5875,0 -0.0375,-0.1125 -0.475,-1.275 -0.4375,-1.15 -1.8125,0 -1.8125,0 -0.0125,0.05 q -0.025,0.0625 -0.475,1.2625 l -0.4625,1.2125 -0.4625,0.0125 q -0.475,0 -0.475,-0.0125 0.0125,-0.0125 0.6,-1.5875 0.5875,-1.575 1.0375,-2.75 z m 2.125,-3.175 q -0.0375,-0.1875 -0.0375,-0.2 l -0.025,-0.0875 0,0.05 q -0.125,0.6125 -1.15,3.4125 l -0.3375,0.9375 -0.0625,0.1625 1.55,0 1.55,0 -0.0375,-0.1125 q -1.2875,-3.4875 -1.45,-4.1625 z" />
      <path
         id="path11403"
         style="font-style:normal;font-variant:normal;font-weight:normal;font-stretch:normal;font-size:12.5px;font-family:jsMath-cmss10;-inkscape-font-specification:jsMath-cmss10;fill:#ffffff;stroke-linecap:butt;stroke-linejoin:round;stroke-miterlimit:100000"
         d="m 270.59256,222.11315 0,-4.3375 0.5375,0 0.5375,0 0,2.3125 0.0125,2.3125 2.25,-2.3125 2.2625,-2.3125 0.6,0 0.5875,0 -1.675,1.7125 -1.675,1.7125 q 0,0.05 1.35,2.025 l 1.75,2.6125 0.4125,0.6125 -0.5875,0 -0.5875,0 -1.5125,-2.2625 -1.525,-2.2625 -0.8375,0.85 -0.825,0.8375 0,1.425 0,1.4125 -0.5375,0 -0.5375,0 0,-4.3375 z" />
      <path
         id="path11405"
         style="font-style:normal;font-variant:normal;font-weight:normal;font-stretch:normal;font-size:12.5px;font-family:jsMath-cmss10;-inkscape-font-specification:jsMath-cmss10;fill:#ffffff;stroke-linecap:butt;stroke-linejoin:round;stroke-miterlimit:100000"
         d="m 278.99705,218.51315 0,-0.5625 0.5625,0 0.5625,0 0,0.5625 0,0.5625 -0.5625,0 -0.5625,0 0,-0.5625 z m 0.0875,5.1625 0,-2.775 0.475,0 0.475,0 0,2.775 0,2.775 -0.475,0 -0.475,0 0,-2.775 z" />
    </g>
    <path
       id="path11302"
       d="m 240.8125,229.52344 0,0.47851 59.90234,0 0,-0.47851 z"
       style="color:#000000;font-style:normal;font-variant:normal;font-weight:normal;font-stretch:normal;font-size:medium;line-height:normal;font-family:sans-serif;text-indent:0;text-align:start;text-decoration:none;text-decoration-line:none;text-decoration-style:solid;text-decoration-color:#000000;letter-spacing:normal;word-spacing:normal;text-transform:none;direction:ltr;block-progression:tb;writing-mode:lr-tb;baseline-shift:baseline;text-anchor:start;white-space:normal;clip-rule:nonzero;display:inline;overflow:visible;visibility:visible;opacity:1;isolation:auto;mix-blend-mode:normal;color-interpolation:sRGB;color-interpolation-filters:linearRGB;solid-color:#000000;solid-opacity:1;fill:#ffffff;fill-opacity:1;fill-rule:evenodd;stroke:none;stroke-width:0.47840747;stroke-linecap:butt;stroke-linejoin:miter;stroke-miterlimit:100;stroke-dasharray:none;stroke-dashoffset:0;stroke-opacity:1;color-rendering:auto;image-rendering:auto;shape-rendering:auto;text-rendering:auto;enable-background:accumulate" />
    <g
       id="text11304"
       style="font-style:normal;font-weight:normal;font-size:13.24533272px;line-height:125%;font-family:sans-serif;letter-spacing:0px;word-spacing:0px;fill:#ffffff;fill-opacity:1;stroke:none;stroke-width:1px;stroke-linecap:butt;stroke-linejoin:miter;stroke-miterlimit:100000;stroke-opacity:1">
      <path
         id="path11390"
         style="font-style:normal;font-variant:normal;font-weight:normal;font-stretch:normal;font-size:12.5px;font-family:jsMath-cmss10;-inkscape-font-specification:jsMath-cmss10;fill:#ffffff;stroke-linecap:butt;stroke-linejoin:round;stroke-miterlimit:100000"
         d="m 303.89595,230.65362 0,-0.3625 1.6625,0 1.6625,0 0,0.3625 0,0.375 -1.6625,0 -1.6625,0 0,-0.375 z" />
      <path
         id="path11392"
         style="font-style:normal;font-variant:normal;font-weight:normal;font-stretch:normal;font-size:12.5px;font-family:jsMath-cmss10;-inkscape-font-specification:jsMath-cmss10;fill:#ffffff;stroke-linecap:butt;stroke-linejoin:round;stroke-miterlimit:100000"
         d="m 314.06119,225.52486 q -0.62256,-0.42725 -2.0813,-0.42725 -1.54419,0 -1.54419,0.71411 0,0.56153 1.61133,0.85449 1.26953,0.22583 1.98364,0.90943 0.8667,0.82397 0.8667,2.51465 0,1.61743 -0.83618,2.56958 -0.83618,0.95825 -2.30103,0.95825 -1.45874,0 -2.30102,-0.95825 -0.83618,-0.95215 -0.83618,-2.63062 0,-1.24512 0.83618,-2.2522 0.32348,-0.39062 0.78125,-0.61035 -0.95215,-0.48218 -0.95215,-1.34277 0,-1.66016 2.69165,-1.66016 1.34888,0 2.0813,0.42725 l 0,0.93384 z m -2.97852,1.94702 q -0.41504,0.177 -0.75073,0.62256 -0.5249,0.68969 -0.5249,1.93481 0,1.23901 0.5188,1.93482 0.5249,0.7019 1.43432,0.7019 0.89722,0 1.42212,-0.70801 0.5249,-0.70801 0.5249,-1.86767 0,-1.2146 -0.55542,-1.80054 -0.59204,-0.62866 -1.36108,-0.6958 -0.39063,-0.0366 -0.70801,-0.12207 z" />
      <path
         id="path11394"
         style="font-style:normal;font-variant:normal;font-weight:normal;font-stretch:normal;font-size:12.5px;font-family:jsMath-cmss10;-inkscape-font-specification:jsMath-cmss10;fill:#ffffff;stroke-linecap:butt;stroke-linejoin:round;stroke-miterlimit:100000"
         d="m 316.76236,229.10362 0,-4.3375 0.5375,0 0.5375,0 0,2.3125 0.0125,2.3125 2.25,-2.3125 2.2625,-2.3125 0.6,0 0.5875,0 -1.675,1.7125 -1.675,1.7125 q 0,0.05 1.35,2.025 l 1.75,2.6125 0.4125,0.6125 -0.5875,0 -0.5875,0 -1.5125,-2.2625 -1.525,-2.2625 -0.8375,0.85 -0.825,0.8375 0,1.425 0,1.4125 -0.5375,0 -0.5375,0 0,-4.3375 z" />
      <path
         id="path11396"
         style="font-style:normal;font-variant:normal;font-weight:normal;font-stretch:normal;font-size:12.5px;font-family:jsMath-cmss10;-inkscape-font-specification:jsMath-cmss10;fill:#ffffff;stroke-linecap:butt;stroke-linejoin:round;stroke-miterlimit:100000"
         d="m 325.16685,225.50362 0,-0.5625 0.5625,0 0.5625,0 0,0.5625 0,0.5625 -0.5625,0 -0.5625,0 0,-0.5625 z m 0.0875,5.1625 0,-2.775 0.475,0 0.475,0 0,2.775 0,2.775 -0.475,0 -0.475,0 0,-2.775 z" />
      <path
         id="path11398"
         style="font-style:normal;font-variant:normal;font-weight:normal;font-stretch:normal;font-size:12.5px;font-family:jsMath-cmss10;-inkscape-font-specification:jsMath-cmss10;baseline-shift:super;fill:#ffffff;stroke-linecap:butt;stroke-linejoin:round;stroke-miterlimit:100000"
         d="m 330.20787,219.07862 q 0.15,-0.0375 0.3125,0.025 0.2125,0.1 0.25,0.3 0,0.1625 -0.05,0.95 l -0.05,0.8875 0.675,-0.475 q 0.7,-0.4875 0.7125,-0.4875 0.05,-0.025 0.15,-0.025 0.1125,0 0.175,0.025 0.15,0.0625 0.2375,0.225 0.025,0.075 0.025,0.1875 0,0.1125 -0.0375,0.1875 -0.0375,0.075 -0.0875,0.125 l -0.275,0.15 q -0.2625,0.15 -0.5125,0.2875 l -0.75,0.4 0.75,0.4 q 0.25,0.1375 0.5125,0.2875 l 0.275,0.15 q 0.05,0.05 0.0875,0.125 0.0375,0.075 0.0375,0.1875 0,0.1125 -0.025,0.1875 -0.0875,0.1625 -0.2375,0.225 -0.0625,0.025 -0.175,0.025 -0.1,0 -0.15,-0.025 -0.0125,0 -0.7125,-0.4875 l -0.675,-0.475 0.05,0.8875 q 0.05,0.7875 0.05,0.95 -0.0375,0.2 -0.25,0.3 -0.0625,0.025 -0.175,0.025 -0.125,0 -0.1875,-0.025 -0.2125,-0.1 -0.25,-0.3 0,-0.1625 0.05,-0.95 l 0.05,-0.8875 -0.6625,0.475 q -0.2125,0.1375 -0.4625,0.3125 -0.2375,0.175 -0.25,0.175 -0.15,0.075 -0.3375,0 -0.15,-0.0625 -0.2375,-0.225 -0.025,-0.075 -0.025,-0.1875 0,-0.1125 0.0375,-0.1875 0.0375,-0.075 0.0875,-0.125 l 0.2625,-0.15 q 0.275,-0.15 0.525,-0.2875 l 0.75,-0.4 -0.75,-0.4 q -0.25,-0.1375 -0.525,-0.2875 l -0.2625,-0.15 q -0.05,-0.05 -0.0875,-0.125 -0.0375,-0.075 -0.0375,-0.1875 0,-0.1125 0.025,-0.1875 0.0875,-0.1625 0.2375,-0.225 0.1875,-0.075 0.3375,0 0.0125,0 0.25,0.175 0.25,0.175 0.4625,0.3125 l 0.6625,0.475 -0.05,-0.8875 q -0.05,-0.7625 -0.05,-0.95 0.0375,-0.2125 0.3,-0.325 z" />
    </g>
    <rect
       ry="5.0257972e-06"
       y="114.01984"
       x="257.20648"
       height="55"
       width="55"
       id="rect11409"
       style="opacity:0.98999999;fill:#de8787;fill-opacity:1;stroke:none;stroke-width:1.5;stroke-linecap:butt;stroke-linejoin:round;stroke-miterlimit:100;stroke-dasharray:none" />
    <text
       xml:space="preserve"
       style="font-style:normal;font-weight:normal;font-size:32.31127167px;line-height:125%;font-family:sans-serif;letter-spacing:0px;word-spacing:0px;fill:#f9f9f9;fill-opacity:1;stroke:none;stroke-width:1px;stroke-linecap:butt;stroke-linejoin:miter;stroke-miterlimit:100000;stroke-opacity:1"
       x="269.32053"
       y="152.73184"
       id="text11411"><tspan
         id="tspan11413"
         x="269.32053"
         y="152.73184"
         style="font-style:normal;font-variant:normal;font-weight:normal;font-stretch:normal;font-family:jsMath-cmss10;-inkscape-font-specification:jsMath-cmss10;fill:#f9f9f9;stroke-linecap:butt;stroke-linejoin:round;stroke-miterlimit:100000">Ki</tspan></text>
    <g
       style="stroke-linecap:butt;stroke-linejoin:round;stroke-miterlimit:100000"
       transform="translate(13.486694,-22.823636)"
       id="g11431">
      <circle
         r="38.57143"
         cy="161.18298"
         cx="138.83221"
         id="circle11415"
         style="opacity:1;fill:#006680;fill-opacity:1;stroke:none;stroke-width:1;stroke-linecap:butt;stroke-linejoin:round;stroke-miterlimit:100;stroke-dasharray:none" />
      <text
         id="text11417"
         y="169.51122"
         x="124.66549"
         style="font-style:normal;font-weight:normal;font-size:32.31127167px;line-height:125%;font-family:sans-serif;letter-spacing:0px;word-spacing:0px;fill:#f9f9f9;fill-opacity:1;stroke:none;stroke-width:1px;stroke-linecap:butt;stroke-linejoin:miter;stroke-miterlimit:100000;stroke-opacity:1"
         xml:space="preserve"><tspan
           style="font-style:normal;font-variant:normal;font-weight:normal;font-stretch:normal;font-family:jsMath-cmss10;-inkscape-font-specification:jsMath-cmss10;fill:#f9f9f9;stroke-linecap:butt;stroke-linejoin:round;stroke-miterlimit:100000"
           y="169.51122"
           x="124.66549"
           id="tspan11419">S<tspan
   style="font-size:64.99999762%;baseline-shift:sub;stroke-linecap:butt;stroke-linejoin:round;stroke-miterlimit:100000"
   id="tspan11427">1</tspan></tspan></text>
    </g>
    <g
       style="stroke-linecap:butt;stroke-linejoin:round;stroke-miterlimit:100000"
       transform="translate(11.411819,-23.584322)"
       id="g11437">
      <circle
         style="opacity:1;fill:#006680;fill-opacity:1;stroke:none;stroke-width:1;stroke-linecap:butt;stroke-linejoin:round;stroke-miterlimit:100;stroke-dasharray:none"
         id="circle11421"
         cx="140.90709"
         cy="254.5524"
         r="38.57143" />
      <text
         xml:space="preserve"
         style="font-style:normal;font-weight:normal;font-size:32.31127167px;line-height:125%;font-family:sans-serif;letter-spacing:0px;word-spacing:0px;fill:#f9f9f9;fill-opacity:1;stroke:none;stroke-width:1px;stroke-linecap:butt;stroke-linejoin:miter;stroke-miterlimit:100000;stroke-opacity:1"
         x="126.48833"
         y="262.88062"
         id="text11423"><tspan
           id="tspan11425"
           x="126.48833"
           y="262.88062"
           style="font-style:normal;font-variant:normal;font-weight:normal;font-stretch:normal;font-family:jsMath-cmss10;-inkscape-font-specification:jsMath-cmss10;fill:#f9f9f9;stroke-linecap:butt;stroke-linejoin:round;stroke-miterlimit:100000">S<tspan
   style="font-size:64.99999762%;baseline-shift:sub;stroke-linecap:butt;stroke-linejoin:round;stroke-miterlimit:100000"
   id="tspan11429">2</tspan></tspan></text>
    </g>
    <path
       id="path11443"
       d="m 190.07218,167.54939 39.92783,39.81281"
       style="fill:none;fill-rule:evenodd;stroke:#000000;stroke-width:1px;stroke-linecap:butt;stroke-linejoin:miter;stroke-miterlimit:100000;stroke-opacity:1;marker-end:url(#marker11541)" />
    <path
       id="path11445"
       d="m 195.00001,232.3622 35,0"
       style="fill:none;fill-rule:evenodd;stroke:#000000;stroke-width:1px;stroke-linecap:butt;stroke-linejoin:miter;stroke-miterlimit:100000;stroke-opacity:1;marker-end:url(#marker11453)" />
    <path
       id="path11629"
       d="m 285.00001,172.3622 0,30"
       style="fill:none;fill-rule:evenodd;stroke:#000000;stroke-width:1px;stroke-linecap:butt;stroke-linejoin:miter;stroke-miterlimit:100000;stroke-opacity:1;marker-end:url(#marker11637)" />
    <text
       id="text11731"
       y="307.36221"
       x="129.30736"
       style="font-style:normal;font-weight:normal;font-size:48.26182175px;line-height:125%;font-family:sans-serif;letter-spacing:0px;word-spacing:0px;fill:#000000;fill-opacity:1;stroke:none;stroke-width:1px;stroke-linecap:butt;stroke-linejoin:miter;stroke-miterlimit:100000;stroke-opacity:1"
       xml:space="preserve"><tspan
         y="307.36221"
         x="129.30736"
         style="stroke-linecap:butt;stroke-linejoin:round;stroke-miterlimit:100000"
         id="tspan11733">...</tspan></text>
    <g
       style="stroke-linecap:butt;stroke-linejoin:round;stroke-miterlimit:100000"
       transform="translate(-4.7625612,0)"
       id="g12026">
      <text
         xml:space="preserve"
         style="font-style:normal;font-weight:normal;font-size:12.5px;line-height:125%;font-family:sans-serif;letter-spacing:0px;word-spacing:0px;fill:#ffffff;fill-opacity:1;stroke:none;stroke-width:1px;stroke-linecap:butt;stroke-linejoin:miter;stroke-miterlimit:100000;stroke-opacity:1"
         x="243.34882"
         y="243.01474"
         id="text12014"><tspan
           id="tspan12016"
           style="fill:#ffffff;stroke-linecap:butt;stroke-linejoin:round;stroke-miterlimit:100000"
           x="243.34882"
           y="243.01474">1+Σ(S/h<tspan
   style="font-size:64.99999762%;baseline-shift:sub;fill:#ffffff;stroke-linecap:butt;stroke-linejoin:round;stroke-miterlimit:100000"
   id="tspan12018">l</tspan>) </tspan></text>
      <text
         xml:space="preserve"
         style="font-style:normal;font-weight:normal;font-size:7.24908161px;line-height:125%;font-family:sans-serif;letter-spacing:0px;word-spacing:0px;fill:#ffffff;fill-opacity:1;stroke:none;stroke-width:1px;stroke-linecap:butt;stroke-linejoin:miter;stroke-miterlimit:100000;stroke-opacity:1"
         x="300.86151"
         y="236.76382"
         id="text12020"><tspan
           id="tspan12022"
           style="fill:#ffffff;stroke-linecap:butt;stroke-linejoin:round;stroke-miterlimit:100000"
           x="300.86151"
           y="236.76382">n<tspan
   style="font-size:4.7119031px;baseline-shift:sub;fill:#ffffff;stroke-linecap:butt;stroke-linejoin:round;stroke-miterlimit:100000"
   id="tspan12024">l</tspan></tspan></text>
    </g>
  </g>
</svg>
